<mxfile host="Electron" agent="Mozilla/5.0 (Windows NT 10.0; Win64; x64) AppleWebKit/537.36 (KHTML, like Gecko) draw.io/27.0.2 Chrome/134.0.6998.205 Electron/35.3.0 Safari/537.36" version="27.0.2">
  <diagram name="Seite-1" id="LcutoJYIsuq5r6dQsFdK">
    <mxGraphModel dx="832" dy="642" grid="1" gridSize="10" guides="1" tooltips="1" connect="1" arrows="1" fold="1" page="1" pageScale="1" pageWidth="827" pageHeight="1169" math="0" shadow="0">
      <root>
        <mxCell id="0" />
        <mxCell id="1" parent="0" />
        <mxCell id="gIvbkFvuhjzPxH_8w1TP-27" value="" style="rounded=0;whiteSpace=wrap;html=1;fillColor=#FFCCCC;strokeColor=#b85450;strokeWidth=2;" vertex="1" parent="1">
          <mxGeometry x="40" y="390" width="780" height="300" as="geometry" />
        </mxCell>
        <mxCell id="gIvbkFvuhjzPxH_8w1TP-9" style="edgeStyle=orthogonalEdgeStyle;rounded=0;orthogonalLoop=1;jettySize=auto;html=1;exitX=0.5;exitY=1;exitDx=0;exitDy=0;entryX=0.5;entryY=0;entryDx=0;entryDy=0;" edge="1" parent="1" source="gIvbkFvuhjzPxH_8w1TP-12" target="gIvbkFvuhjzPxH_8w1TP-6">
          <mxGeometry relative="1" as="geometry" />
        </mxCell>
        <mxCell id="gIvbkFvuhjzPxH_8w1TP-11" style="edgeStyle=orthogonalEdgeStyle;rounded=0;orthogonalLoop=1;jettySize=auto;html=1;exitX=1;exitY=0.5;exitDx=0;exitDy=0;entryX=0;entryY=0.5;entryDx=0;entryDy=0;" edge="1" parent="1" source="gIvbkFvuhjzPxH_8w1TP-1" target="gIvbkFvuhjzPxH_8w1TP-8">
          <mxGeometry relative="1" as="geometry" />
        </mxCell>
        <mxCell id="gIvbkFvuhjzPxH_8w1TP-1" value="TrackedCursor" style="rounded=1;whiteSpace=wrap;html=1;" vertex="1" parent="1">
          <mxGeometry x="320" y="120" width="90" height="40" as="geometry" />
        </mxCell>
        <mxCell id="gIvbkFvuhjzPxH_8w1TP-3" style="edgeStyle=orthogonalEdgeStyle;rounded=0;orthogonalLoop=1;jettySize=auto;html=1;exitX=1;exitY=0.5;exitDx=0;exitDy=0;entryX=0;entryY=0.5;entryDx=0;entryDy=0;" edge="1" parent="1" source="gIvbkFvuhjzPxH_8w1TP-4" target="gIvbkFvuhjzPxH_8w1TP-1">
          <mxGeometry relative="1" as="geometry" />
        </mxCell>
        <mxCell id="gIvbkFvuhjzPxH_8w1TP-2" value=".txt File" style="rounded=1;whiteSpace=wrap;html=1;" vertex="1" parent="1">
          <mxGeometry x="70" y="120" width="90" height="40" as="geometry" />
        </mxCell>
        <mxCell id="gIvbkFvuhjzPxH_8w1TP-5" value="" style="edgeStyle=orthogonalEdgeStyle;rounded=0;orthogonalLoop=1;jettySize=auto;html=1;exitX=1;exitY=0.5;exitDx=0;exitDy=0;entryX=0;entryY=0.5;entryDx=0;entryDy=0;" edge="1" parent="1" source="gIvbkFvuhjzPxH_8w1TP-2" target="gIvbkFvuhjzPxH_8w1TP-4">
          <mxGeometry relative="1" as="geometry">
            <mxPoint x="160" y="140" as="sourcePoint" />
            <mxPoint x="340" y="140" as="targetPoint" />
          </mxGeometry>
        </mxCell>
        <mxCell id="gIvbkFvuhjzPxH_8w1TP-4" value="Filesystem::open()" style="text;html=1;align=center;verticalAlign=middle;whiteSpace=wrap;rounded=0;fillColor=#e1d5e7;strokeColor=#9673a6;" vertex="1" parent="1">
          <mxGeometry x="190" y="125" width="100" height="30" as="geometry" />
        </mxCell>
        <mxCell id="gIvbkFvuhjzPxH_8w1TP-19" style="edgeStyle=orthogonalEdgeStyle;rounded=0;orthogonalLoop=1;jettySize=auto;html=1;exitX=0.25;exitY=1;exitDx=0;exitDy=0;entryX=0.25;entryY=0;entryDx=0;entryDy=0;" edge="1" parent="1" source="gIvbkFvuhjzPxH_8w1TP-6" target="gIvbkFvuhjzPxH_8w1TP-17">
          <mxGeometry relative="1" as="geometry" />
        </mxCell>
        <mxCell id="gIvbkFvuhjzPxH_8w1TP-21" style="edgeStyle=orthogonalEdgeStyle;rounded=0;orthogonalLoop=1;jettySize=auto;html=1;exitX=1;exitY=0.5;exitDx=0;exitDy=0;entryX=0.5;entryY=1;entryDx=0;entryDy=0;" edge="1" parent="1" source="gIvbkFvuhjzPxH_8w1TP-6" target="gIvbkFvuhjzPxH_8w1TP-8">
          <mxGeometry relative="1" as="geometry">
            <Array as="points">
              <mxPoint x="410" y="240" />
              <mxPoint x="495" y="240" />
            </Array>
          </mxGeometry>
        </mxCell>
        <mxCell id="gIvbkFvuhjzPxH_8w1TP-6" value="std::vector&lt;div&gt;&amp;lt;Word&amp;gt;&lt;/div&gt;" style="rounded=1;whiteSpace=wrap;html=1;" vertex="1" parent="1">
          <mxGeometry x="320" y="230" width="90" height="40" as="geometry" />
        </mxCell>
        <mxCell id="gIvbkFvuhjzPxH_8w1TP-8" value="Syntax File" style="rounded=1;whiteSpace=wrap;html=1;" vertex="1" parent="1">
          <mxGeometry x="450" y="120" width="90" height="40" as="geometry" />
        </mxCell>
        <mxCell id="gIvbkFvuhjzPxH_8w1TP-13" value="" style="edgeStyle=orthogonalEdgeStyle;rounded=0;orthogonalLoop=1;jettySize=auto;html=1;exitX=0.5;exitY=1;exitDx=0;exitDy=0;entryX=0.5;entryY=0;entryDx=0;entryDy=0;" edge="1" parent="1" source="gIvbkFvuhjzPxH_8w1TP-1" target="gIvbkFvuhjzPxH_8w1TP-12">
          <mxGeometry relative="1" as="geometry">
            <mxPoint x="365" y="160" as="sourcePoint" />
            <mxPoint x="365" y="230" as="targetPoint" />
          </mxGeometry>
        </mxCell>
        <mxCell id="gIvbkFvuhjzPxH_8w1TP-12" value="Lexer::split()" style="text;html=1;align=center;verticalAlign=middle;whiteSpace=wrap;rounded=0;fillColor=#e1d5e7;strokeColor=#9673a6;" vertex="1" parent="1">
          <mxGeometry x="315" y="180" width="100" height="30" as="geometry" />
        </mxCell>
        <mxCell id="gIvbkFvuhjzPxH_8w1TP-24" style="edgeStyle=orthogonalEdgeStyle;rounded=0;orthogonalLoop=1;jettySize=auto;html=1;exitX=0;exitY=0.5;exitDx=0;exitDy=0;entryX=1;entryY=0.5;entryDx=0;entryDy=0;" edge="1" parent="1" source="gIvbkFvuhjzPxH_8w1TP-14" target="gIvbkFvuhjzPxH_8w1TP-22">
          <mxGeometry relative="1" as="geometry" />
        </mxCell>
        <mxCell id="gIvbkFvuhjzPxH_8w1TP-14" value="Modified Callback" style="rounded=1;whiteSpace=wrap;html=1;" vertex="1" parent="1">
          <mxGeometry x="610" y="230" width="80" height="40" as="geometry" />
        </mxCell>
        <mxCell id="gIvbkFvuhjzPxH_8w1TP-20" style="edgeStyle=orthogonalEdgeStyle;rounded=0;orthogonalLoop=1;jettySize=auto;html=1;exitX=0.75;exitY=0;exitDx=0;exitDy=0;entryX=0.75;entryY=1;entryDx=0;entryDy=0;" edge="1" parent="1" source="gIvbkFvuhjzPxH_8w1TP-17" target="gIvbkFvuhjzPxH_8w1TP-6">
          <mxGeometry relative="1" as="geometry" />
        </mxCell>
        <mxCell id="gIvbkFvuhjzPxH_8w1TP-17" value="Lexer::tokenize()" style="text;html=1;align=center;verticalAlign=middle;whiteSpace=wrap;rounded=0;fillColor=#e1d5e7;strokeColor=#9673a6;" vertex="1" parent="1">
          <mxGeometry x="315" y="300" width="100" height="30" as="geometry" />
        </mxCell>
        <mxCell id="gIvbkFvuhjzPxH_8w1TP-25" style="edgeStyle=orthogonalEdgeStyle;rounded=0;orthogonalLoop=1;jettySize=auto;html=1;exitX=0;exitY=0.75;exitDx=0;exitDy=0;entryX=1;entryY=0.75;entryDx=0;entryDy=0;" edge="1" parent="1" source="gIvbkFvuhjzPxH_8w1TP-22" target="gIvbkFvuhjzPxH_8w1TP-6">
          <mxGeometry relative="1" as="geometry">
            <Array as="points">
              <mxPoint x="520" y="260" />
            </Array>
          </mxGeometry>
        </mxCell>
        <mxCell id="gIvbkFvuhjzPxH_8w1TP-22" value="int pos&lt;div&gt;int inserted&lt;/div&gt;&lt;div&gt;int deleted&lt;/div&gt;" style="rounded=0;whiteSpace=wrap;html=1;align=left;" vertex="1" parent="1">
          <mxGeometry x="520" y="220" width="70" height="60" as="geometry" />
        </mxCell>
        <mxCell id="gIvbkFvuhjzPxH_8w1TP-26" value="" style="ellipse;whiteSpace=wrap;html=1;aspect=fixed;fillColor=none;strokeColor=#b85450;strokeWidth=2;" vertex="1" parent="1">
          <mxGeometry x="399" y="245" width="30" height="30" as="geometry" />
        </mxCell>
        <mxCell id="gIvbkFvuhjzPxH_8w1TP-35" style="edgeStyle=orthogonalEdgeStyle;rounded=0;orthogonalLoop=1;jettySize=auto;html=1;exitX=1;exitY=0.5;exitDx=0;exitDy=0;entryX=0;entryY=0.5;entryDx=0;entryDy=0;" edge="1" parent="1" source="gIvbkFvuhjzPxH_8w1TP-28" target="gIvbkFvuhjzPxH_8w1TP-29">
          <mxGeometry relative="1" as="geometry" />
        </mxCell>
        <mxCell id="gIvbkFvuhjzPxH_8w1TP-39" style="edgeStyle=orthogonalEdgeStyle;rounded=0;orthogonalLoop=1;jettySize=auto;html=1;exitX=0.5;exitY=1;exitDx=0;exitDy=0;entryX=0;entryY=0.5;entryDx=0;entryDy=0;" edge="1" parent="1" source="gIvbkFvuhjzPxH_8w1TP-28" target="gIvbkFvuhjzPxH_8w1TP-34">
          <mxGeometry relative="1" as="geometry" />
        </mxCell>
        <mxCell id="gIvbkFvuhjzPxH_8w1TP-28" value="get word where next.end &amp;gt;= pos &lt;b&gt;= w&lt;/b&gt;" style="rounded=1;whiteSpace=wrap;html=1;" vertex="1" parent="1">
          <mxGeometry x="50" y="460" width="96" height="50" as="geometry" />
        </mxCell>
        <mxCell id="gIvbkFvuhjzPxH_8w1TP-36" value="" style="edgeStyle=orthogonalEdgeStyle;rounded=0;orthogonalLoop=1;jettySize=auto;html=1;" edge="1" parent="1" source="gIvbkFvuhjzPxH_8w1TP-29" target="gIvbkFvuhjzPxH_8w1TP-32">
          <mxGeometry relative="1" as="geometry" />
        </mxCell>
        <mxCell id="gIvbkFvuhjzPxH_8w1TP-37" style="edgeStyle=orthogonalEdgeStyle;rounded=0;orthogonalLoop=1;jettySize=auto;html=1;exitX=1;exitY=0.5;exitDx=0;exitDy=0;entryX=0;entryY=0.5;entryDx=0;entryDy=0;" edge="1" parent="1" source="gIvbkFvuhjzPxH_8w1TP-29" target="gIvbkFvuhjzPxH_8w1TP-30">
          <mxGeometry relative="1" as="geometry" />
        </mxCell>
        <mxCell id="gIvbkFvuhjzPxH_8w1TP-29" value="if deleted &amp;gt; 0" style="rounded=1;whiteSpace=wrap;html=1;" vertex="1" parent="1">
          <mxGeometry x="181" y="460" width="80" height="50" as="geometry" />
        </mxCell>
        <mxCell id="gIvbkFvuhjzPxH_8w1TP-38" style="edgeStyle=orthogonalEdgeStyle;rounded=0;orthogonalLoop=1;jettySize=auto;html=1;exitX=1;exitY=0.5;exitDx=0;exitDy=0;entryX=0;entryY=0.5;entryDx=0;entryDy=0;" edge="1" parent="1" source="gIvbkFvuhjzPxH_8w1TP-30" target="gIvbkFvuhjzPxH_8w1TP-31">
          <mxGeometry relative="1" as="geometry" />
        </mxCell>
        <mxCell id="gIvbkFvuhjzPxH_8w1TP-30" value="words.start &amp;gt; pos + deleted" style="rounded=1;whiteSpace=wrap;html=1;arcSize=0;fillColor=#e1d5e7;strokeColor=#9673a6;" vertex="1" parent="1">
          <mxGeometry x="310" y="420" width="96" height="50" as="geometry" />
        </mxCell>
        <mxCell id="gIvbkFvuhjzPxH_8w1TP-31" value="words.start - deleted" style="rounded=1;whiteSpace=wrap;html=1;" vertex="1" parent="1">
          <mxGeometry x="430" y="420" width="96" height="50" as="geometry" />
        </mxCell>
        <mxCell id="gIvbkFvuhjzPxH_8w1TP-40" style="edgeStyle=orthogonalEdgeStyle;rounded=0;orthogonalLoop=1;jettySize=auto;html=1;exitX=1;exitY=0.5;exitDx=0;exitDy=0;entryX=0;entryY=0.5;entryDx=0;entryDy=0;" edge="1" parent="1" source="gIvbkFvuhjzPxH_8w1TP-32" target="gIvbkFvuhjzPxH_8w1TP-33">
          <mxGeometry relative="1" as="geometry" />
        </mxCell>
        <mxCell id="gIvbkFvuhjzPxH_8w1TP-32" value="words.start &amp;lt; pos + deleted" style="rounded=1;whiteSpace=wrap;html=1;arcSize=0;fillColor=#e1d5e7;strokeColor=#9673a6;" vertex="1" parent="1">
          <mxGeometry x="310" y="490" width="96" height="50" as="geometry" />
        </mxCell>
        <mxCell id="gIvbkFvuhjzPxH_8w1TP-43" style="edgeStyle=orthogonalEdgeStyle;rounded=0;orthogonalLoop=1;jettySize=auto;html=1;exitX=1;exitY=0.5;exitDx=0;exitDy=0;entryX=0;entryY=0.5;entryDx=0;entryDy=0;" edge="1" parent="1" source="gIvbkFvuhjzPxH_8w1TP-33" target="gIvbkFvuhjzPxH_8w1TP-41">
          <mxGeometry relative="1" as="geometry">
            <Array as="points">
              <mxPoint x="550" y="515" />
              <mxPoint x="550" y="555" />
            </Array>
          </mxGeometry>
        </mxCell>
        <mxCell id="gIvbkFvuhjzPxH_8w1TP-33" value="e last word.end - deleted" style="rounded=1;whiteSpace=wrap;html=1;" vertex="1" parent="1">
          <mxGeometry x="430" y="490" width="96" height="50" as="geometry" />
        </mxCell>
        <mxCell id="gIvbkFvuhjzPxH_8w1TP-42" style="edgeStyle=orthogonalEdgeStyle;rounded=0;orthogonalLoop=1;jettySize=auto;html=1;exitX=1;exitY=0.5;exitDx=0;exitDy=0;entryX=0;entryY=0.5;entryDx=0;entryDy=0;" edge="1" parent="1" source="gIvbkFvuhjzPxH_8w1TP-34" target="gIvbkFvuhjzPxH_8w1TP-41">
          <mxGeometry relative="1" as="geometry">
            <Array as="points">
              <mxPoint x="550" y="585" />
              <mxPoint x="550" y="555" />
            </Array>
          </mxGeometry>
        </mxCell>
        <mxCell id="gIvbkFvuhjzPxH_8w1TP-47" style="edgeStyle=orthogonalEdgeStyle;rounded=0;orthogonalLoop=1;jettySize=auto;html=1;exitX=0.5;exitY=1;exitDx=0;exitDy=0;entryX=0;entryY=0.5;entryDx=0;entryDy=0;" edge="1" parent="1" source="gIvbkFvuhjzPxH_8w1TP-34" target="gIvbkFvuhjzPxH_8w1TP-44">
          <mxGeometry relative="1" as="geometry" />
        </mxCell>
        <mxCell id="gIvbkFvuhjzPxH_8w1TP-34" value="s = w.end + 1" style="rounded=1;whiteSpace=wrap;html=1;" vertex="1" parent="1">
          <mxGeometry x="310" y="560" width="96" height="50" as="geometry" />
        </mxCell>
        <mxCell id="gIvbkFvuhjzPxH_8w1TP-48" style="edgeStyle=orthogonalEdgeStyle;rounded=0;orthogonalLoop=1;jettySize=auto;html=1;exitX=1;exitY=0.5;exitDx=0;exitDy=0;entryX=0;entryY=0.5;entryDx=0;entryDy=0;" edge="1" parent="1" source="gIvbkFvuhjzPxH_8w1TP-41" target="gIvbkFvuhjzPxH_8w1TP-45">
          <mxGeometry relative="1" as="geometry" />
        </mxCell>
        <mxCell id="gIvbkFvuhjzPxH_8w1TP-41" value="Lexer::splitRange&lt;div&gt;(s -&amp;gt; e)&lt;/div&gt;" style="rounded=1;whiteSpace=wrap;html=1;arcSize=0;fillColor=#e1d5e7;strokeColor=#9673a6;" vertex="1" parent="1">
          <mxGeometry x="580" y="530" width="96" height="50" as="geometry" />
        </mxCell>
        <mxCell id="gIvbkFvuhjzPxH_8w1TP-44" value="insert(w.index,&lt;div&gt;newWords)&lt;/div&gt;" style="rounded=1;whiteSpace=wrap;html=1;arcSize=0;fillColor=#e1d5e7;strokeColor=#9673a6;" vertex="1" parent="1">
          <mxGeometry x="540" y="630" width="96" height="50" as="geometry" />
        </mxCell>
        <mxCell id="gIvbkFvuhjzPxH_8w1TP-46" style="edgeStyle=orthogonalEdgeStyle;rounded=0;orthogonalLoop=1;jettySize=auto;html=1;exitX=0.5;exitY=1;exitDx=0;exitDy=0;entryX=1;entryY=0.5;entryDx=0;entryDy=0;" edge="1" parent="1" source="gIvbkFvuhjzPxH_8w1TP-45" target="gIvbkFvuhjzPxH_8w1TP-44">
          <mxGeometry relative="1" as="geometry" />
        </mxCell>
        <mxCell id="gIvbkFvuhjzPxH_8w1TP-45" value="newWords&lt;div&gt;&amp;lt;Word&amp;gt;&lt;/div&gt;" style="rounded=1;whiteSpace=wrap;html=1;" vertex="1" parent="1">
          <mxGeometry x="700" y="530" width="96" height="50" as="geometry" />
        </mxCell>
        <mxCell id="gIvbkFvuhjzPxH_8w1TP-49" style="rounded=0;orthogonalLoop=1;jettySize=auto;html=1;exitX=1;exitY=1;exitDx=0;exitDy=0;entryX=0.564;entryY=0.003;entryDx=0;entryDy=0;entryPerimeter=0;fillColor=#f8cecc;strokeColor=#b85450;strokeWidth=2;edgeStyle=orthogonalEdgeStyle;curved=1;" edge="1" parent="1" source="gIvbkFvuhjzPxH_8w1TP-26" target="gIvbkFvuhjzPxH_8w1TP-27">
          <mxGeometry relative="1" as="geometry">
            <Array as="points">
              <mxPoint x="440" y="271" />
              <mxPoint x="480" y="270" />
            </Array>
          </mxGeometry>
        </mxCell>
      </root>
    </mxGraphModel>
  </diagram>
</mxfile>
